<?xml version="1.0" encoding="UTF-8" standalone="no"?>
<!DOCTYPE svg PUBLIC "-//W3C//DTD SVG 1.1//EN" "http://www.w3.org/Graphics/SVG/1.1/DTD/svg11.dtd">
<svg width="100%" height="100%" viewBox="0 0 400 400" version="1.1" xmlns="http://www.w3.org/2000/svg" xmlns:xlink="http://www.w3.org/1999/xlink" xml:space="preserve" xmlns:serif="http://www.serif.com/" style="fill-rule:evenodd;clip-rule:evenodd;stroke-linejoin:round;stroke-miterlimit:2;">
    <g transform="matrix(1,0,0,1,-340,-340)">
        <g id="rect4553" transform="matrix(0.8,0,0,1.98661,726.857,78.075)">
            <rect x="-483.571" y="131.845" width="500" height="201.348" style="fill:rgb(0,94,184);"/>
        </g>
        <g transform="matrix(0.908564,0,0,0.908564,431.089,420.02)">
            <g transform="matrix(-1,0,0,-1,241.189,255.243)">
                <path d="M126.916,0.072C62.084,0.072 66.132,28.187 66.132,28.187L66.204,57.315L128.072,57.315L128.072,66.06L41.631,66.06C41.631,66.06 0.145,61.355 0.145,126.771C0.145,192.188 36.355,189.868 36.355,189.868L57.965,189.868L57.965,159.512C57.965,159.512 56.8,123.302 93.597,123.302L154.959,123.302C154.959,123.302 189.434,123.859 189.434,89.983L189.434,33.97C189.434,33.97 194.669,0.072 126.916,0.072ZM92.802,19.659C98.957,19.659 103.932,24.634 103.932,30.789C103.932,36.945 98.957,41.92 92.802,41.92C86.646,41.92 81.671,36.945 81.671,30.789C81.671,24.634 86.646,19.659 92.802,19.659Z" style="fill:rgb(0,94,184);fill-rule:nonzero;"/>
                <path d="M126.916,0.072C62.084,0.072 66.132,28.187 66.132,28.187L66.204,57.315L128.072,57.315L128.072,66.06L41.631,66.06C41.631,66.06 0.145,61.355 0.145,126.771C0.145,192.188 36.355,189.868 36.355,189.868L57.965,189.868L57.965,159.512C57.965,159.512 56.8,123.302 93.597,123.302L154.959,123.302C154.959,123.302 189.434,123.859 189.434,89.983L189.434,33.97C189.434,33.97 194.669,0.072 126.916,0.072ZM126.916,5.575C158.168,5.575 172.773,12.755 179.379,20.573C185.029,27.26 183.931,33.97 183.931,33.97C183.931,33.97 183.931,89.983 183.931,89.983C183.931,118.316 155.048,117.8 155.048,117.8C155.018,117.799 154.988,117.799 154.959,117.799L93.597,117.799C80.871,117.799 72.134,121.706 66.068,126.965C51.898,139.251 52.465,159.689 52.465,159.689L52.462,159.512L52.462,184.365C52.462,184.365 36.355,184.365 36.355,184.365C36.237,184.365 36.12,184.368 36.003,184.376C36.003,184.376 28.935,184.634 21.787,178.635C13.443,171.633 5.648,156.919 5.648,126.771C5.648,102.64 11.421,88.754 18.767,80.9C28.685,70.295 41.011,71.528 41.011,71.528C41.216,71.551 41.424,71.563 41.631,71.563L128.072,71.563C131.112,71.563 133.575,69.099 133.575,66.06L133.575,57.315C133.575,54.275 131.112,51.811 128.072,51.811L71.694,51.811C71.694,51.811 71.635,28.174 71.635,28.174C71.635,27.916 71.616,27.658 71.579,27.403C71.579,27.403 69.33,5.575 126.916,5.575L126.916,5.575ZM92.802,14.156C83.603,14.156 76.168,21.591 76.168,30.789C76.168,39.988 83.603,47.423 92.802,47.423C102.001,47.423 109.435,39.988 109.435,30.789C109.435,21.591 102.001,14.156 92.802,14.156L92.802,14.156ZM92.802,19.659C98.957,19.659 103.932,24.634 103.932,30.789C103.932,36.945 98.957,41.92 92.802,41.92C86.646,41.92 81.671,36.945 81.671,30.789C81.671,24.634 86.646,19.659 92.802,19.659Z" style="fill:white;"/>
            </g>
        </g>
        <g transform="matrix(0.908564,0,0,0.908564,431.089,420.02)">
            <g transform="matrix(-1,0,0,-1,254.227,263.066)">
                <path d="M128.757,254.126C193.589,254.126 189.541,226.011 189.541,226.011L189.469,196.884L127.601,196.884L127.601,188.139L214.042,188.139C214.042,188.139 255.528,192.844 255.528,127.427C255.528,62.011 219.318,64.331 219.318,64.331L197.708,64.331L197.708,94.686C197.708,94.686 198.873,130.896 162.076,130.896L100.714,130.896C100.714,130.896 66.239,130.339 66.239,164.215L66.239,220.229C66.239,220.229 61.004,254.126 128.757,254.126ZM162.871,234.54C156.716,234.54 151.741,229.565 151.741,223.409C151.741,217.254 156.716,212.279 162.871,212.279C169.027,212.279 174.002,217.254 174.002,223.409C174.002,229.565 169.027,234.54 162.871,234.54Z" style="fill:white;fill-rule:nonzero;"/>
                <path d="M128.757,254.126C193.589,254.126 189.541,226.011 189.541,226.011L189.469,196.884L127.601,196.884L127.601,188.139L214.042,188.139C214.042,188.139 255.528,192.844 255.528,127.427C255.528,62.011 219.318,64.331 219.318,64.331L197.708,64.331L197.708,94.686C197.708,94.686 198.873,130.896 162.076,130.896L100.714,130.896C100.714,130.896 66.239,130.339 66.239,164.215L66.239,220.229C66.239,220.229 61.004,254.126 128.757,254.126ZM128.757,249.724C96.981,249.724 82.17,242.285 75.453,234.336C69.747,227.583 70.59,220.901 70.59,220.901C70.624,220.679 70.641,220.454 70.641,220.229L70.641,164.215C70.641,134.774 100.643,135.298 100.643,135.298C100.667,135.299 100.69,135.299 100.714,135.299L162.076,135.299C174.464,135.299 182.979,131.521 188.884,126.401C202.007,115.023 202.13,96.455 202.111,94.682C202.111,94.682 202.111,68.733 202.111,68.733C202.111,68.733 219.318,68.733 219.318,68.733C219.412,68.733 219.506,68.73 219.6,68.724C219.6,68.724 227.065,68.402 234.593,74.72C243.079,81.841 251.126,96.767 251.126,127.427C251.126,151.966 245.18,166.064 237.71,174.05C227.386,185.089 214.538,183.764 214.538,183.764C214.374,183.746 214.208,183.736 214.042,183.736L127.601,183.736C125.169,183.736 123.198,185.707 123.198,188.139L123.198,196.884C123.198,199.315 125.169,201.287 127.601,201.287L185.077,201.287C185.077,201.287 185.138,226.022 185.138,226.022C185.139,226.228 185.154,226.434 185.183,226.639C185.183,226.639 187.776,249.724 128.757,249.724ZM162.871,238.942C171.461,238.942 178.404,231.999 178.404,223.409C178.404,214.819 171.461,207.876 162.871,207.876C154.281,207.876 147.338,214.819 147.338,223.409C147.338,231.999 154.281,238.942 162.871,238.942ZM162.871,234.54C156.716,234.54 151.741,229.565 151.741,223.409C151.741,217.254 156.716,212.279 162.871,212.279C169.027,212.279 174.002,217.254 174.002,223.409C174.002,229.565 169.027,234.54 162.871,234.54Z" style="fill:white;"/>
            </g>
        </g>
    </g>
</svg>
