<?xml version="1.0" encoding="UTF-8" standalone="no"?>
<!DOCTYPE svg PUBLIC "-//W3C//DTD SVG 1.1//EN" "http://www.w3.org/Graphics/SVG/1.1/DTD/svg11.dtd">
<svg width="100%" height="100%" viewBox="0 0 1080 1080" version="1.1" xmlns="http://www.w3.org/2000/svg" xmlns:xlink="http://www.w3.org/1999/xlink" xml:space="preserve" xmlns:serif="http://www.serif.com/" style="fill-rule:evenodd;clip-rule:evenodd;stroke-linejoin:round;stroke-miterlimit:2;">
    <g id="rect4553" transform="matrix(0.477713,0,0,1.1848,655.344,265.598)">
        <rect x="-483.571" y="131.845" width="500" height="201.348" style="fill:white;"/>
    </g>
    <g transform="matrix(0.908564,0,0,0.908564,430.67,426.095)">
        <g transform="matrix(1,0,0,1,-6.68097,0.588176)">
            <path d="M128.757,254.126C193.589,254.126 189.541,226.011 189.541,226.011L189.469,196.884L127.601,196.884L127.601,188.139L214.042,188.139C214.042,188.139 255.528,192.844 255.528,127.427C255.528,62.011 219.318,64.331 219.318,64.331L197.708,64.331L197.708,94.686C197.708,94.686 198.873,130.896 162.076,130.896L100.714,130.896C100.714,130.896 66.239,130.339 66.239,164.215L66.239,220.229C66.239,220.229 61.004,254.126 128.757,254.126ZM162.871,234.54C156.716,234.54 151.741,229.565 151.741,223.409C151.741,217.254 156.716,212.279 162.871,212.279C169.027,212.279 174.002,217.254 174.002,223.409C174.002,229.565 169.027,234.54 162.871,234.54Z" style="fill:rgb(250,225,0);fill-rule:nonzero;"/>
        </g>
        <g transform="matrix(1,0,0,1,1.36612,-1.67997)">
            <path d="M126.916,0.072C62.084,0.072 66.132,28.187 66.132,28.187L66.204,57.315L128.072,57.315L128.072,66.06L41.631,66.06C41.631,66.06 0.145,61.355 0.145,126.771C0.145,192.188 36.355,189.868 36.355,189.868L57.965,189.868L57.965,159.512C57.965,159.512 56.8,123.302 93.597,123.302L154.959,123.302C154.959,123.302 189.434,123.859 189.434,89.983L189.434,33.97C189.434,33.97 194.669,0.072 126.916,0.072ZM92.802,19.659C98.957,19.659 103.932,24.634 103.932,30.789C103.932,36.945 98.957,41.92 92.802,41.92C86.646,41.92 81.671,36.945 81.671,30.789C81.671,24.634 86.646,19.659 92.802,19.659Z" style="fill:rgb(0,94,184);fill-rule:nonzero;"/>
        </g>
    </g>
    <g id="Layer1" transform="matrix(0.210787,0,0,0.210787,484.188,510.221)">
        <g id="rect45531" serif:id="rect4553" transform="matrix(1.65487,0,0,1.77879,663.075,-269.515)">
            <path d="M16.429,181.617C16.429,154.129 -7.524,131.845 -37.07,131.845C-133.078,131.845 -333.554,131.845 -429.776,131.845C-444.044,131.845 -457.727,137.118 -467.815,146.504C-477.904,155.89 -483.571,168.619 -483.571,181.893L-483.571,283.619C-483.571,296.767 -477.957,309.376 -467.964,318.674C-457.97,327.971 -444.416,333.194 -430.284,333.194C-334.019,333.194 -132.236,333.194 -36.347,333.194C-22.35,333.194 -8.926,328.021 0.971,318.813C10.868,309.605 16.429,297.117 16.429,284.095C16.429,252.98 16.429,212.861 16.429,181.617Z" style="fill:rgb(0,94,184);stroke:white;stroke-width:0.83px;"/>
        </g>
        <g id="rect45532" serif:id="rect4553" transform="matrix(1.43769,0,0,1.32101,612.38,-160.098)">
            <path d="M16.429,200.76C16.429,162.699 -11.921,131.845 -46.893,131.845L-454.117,131.845C-461.929,131.845 -469.421,135.223 -474.945,141.234C-480.468,147.246 -483.571,155.399 -483.571,163.901C-483.571,208.213 -483.571,286.364 -483.571,318.631C-483.571,322.493 -482.162,326.197 -479.652,328.928C-477.143,331.66 -473.739,333.194 -470.19,333.194C-408.852,333.194 -152.687,333.194 -38.691,333.194C-24.072,333.194 -10.052,326.874 0.284,315.624C10.621,304.374 16.429,289.116 16.429,273.206C16.429,250.425 16.429,224.301 16.429,200.76Z" style="fill:white;"/>
        </g>
        <g id="path10" transform="matrix(1.44652,0,0,1.44652,615.825,-188.49)">
            <path d="M-24.305,333.194C-1.808,333.194 16.429,314.957 16.429,292.46C16.429,256.958 16.429,205.816 16.429,170.838C16.429,160.496 12.321,150.578 5.008,143.266C-2.304,135.954 -12.222,131.845 -22.564,131.845C-115.786,131.845 -350.75,131.845 -444.278,131.845C-454.699,131.845 -464.694,135.985 -472.063,143.354C-479.432,150.723 -483.571,160.718 -483.571,171.139C-483.571,216.134 -483.571,287.586 -483.571,318.329C-483.571,326.539 -476.916,333.194 -468.706,333.194C-401.957,333.194 -128.637,333.194 -24.305,333.194ZM-282.556,151.267L-317.071,313.328L-371.23,313.328L-405.274,201.181L-405.746,201.181L-428.386,313.328L-469.477,313.328L-434.684,151.267L-380.331,151.267L-346.953,263.664L-346.481,263.664L-323.619,151.267L-282.556,151.267ZM-127.626,151.267L-161.475,313.328L-205.091,313.328L-190.608,243.909L-242.214,243.909L-256.669,313.328L-300.285,313.328L-266.436,151.267L-222.82,151.267L-235.638,213.278L-184.087,213.278L-171.241,151.267L-127.626,151.267ZM-2.3,155.679L-12.815,187.947C-21.222,184.035 -32.653,180.539 -48.745,180.539C-66.003,180.539 -80.014,183.063 -80.014,196.104C-80.014,219.077 -16.783,210.504 -16.783,259.724C-16.783,304.505 -58.567,316.13 -96.356,316.13C-113.142,316.13 -132.536,312.163 -146.742,307.751L-136.476,274.79C-127.875,280.367 -110.562,284.085 -96.356,284.085C-82.817,284.085 -61.591,281.532 -61.591,264.801C-61.591,238.804 -124.823,248.543 -124.823,202.846C-124.823,161.034 -87.95,148.493 -52.241,148.493C-32.154,148.493 -13.287,150.601 -2.3,155.679" style="fill:rgb(0,94,184);fill-rule:nonzero;"/>
        </g>
    </g>
</svg>
